# Blender 3.4.1
# www.blender.org
mtllib mayaTemple.mtl
o Cube
v 25.080000 1.500000 -25.080000
v 26.000000 -1.500000 -26.000000
v 25.080000 1.500000 25.080000
v 26.000000 -1.500000 26.000000
v -25.080000 1.500000 -25.080000
v -26.000000 -1.500000 -26.000000
v -25.080000 1.500000 25.080000
v -26.000000 -1.500000 26.000000
vn -0.0000 1.0000 -0.0000
vn -0.0000 0.2932 0.9561
vn -0.9561 0.2932 -0.0000
vn -0.0000 -1.0000 -0.0000
vn 0.9561 0.2932 -0.0000
vn -0.0000 0.2932 -0.9561
vt 0.625000 0.500000
vt 0.375000 0.500000
vt 0.625000 0.750000
vt 0.375000 0.750000
vt 0.875000 0.500000
vt 0.625000 0.250000
vt 0.125000 0.500000
vt 0.375000 0.250000
vt 0.875000 0.750000
vt 0.625000 1.000000
vt 0.625000 0.000000
vt 0.375000 1.000000
vt 0.375000 0.000000
vt 0.125000 0.750000
s 0
usemtl Material
f 1/1/1 5/5/1 7/9/1 3/3/1
f 4/4/2 3/3/2 7/10/2 8/12/2
f 8/13/3 7/11/3 5/6/3 6/8/3
f 6/7/4 2/2/4 4/4/4 8/14/4
f 2/2/5 1/1/5 3/3/5 4/4/5
f 6/8/6 5/6/6 1/1/6 2/2/6
o Cube.001
v 23.073601 4.500000 -23.073601
v 23.920000 1.500000 -23.920000
v 23.073601 4.500000 23.073601
v 23.920000 1.500000 23.920000
v -23.073601 4.500000 -23.073601
v -23.920000 1.500000 -23.920000
v -23.073601 4.500000 23.073601
v -23.920000 1.500000 23.920000
vn -0.0000 1.0000 -0.0000
vn -0.0000 0.2715 0.9624
vn -0.9624 0.2715 -0.0000
vn -0.0000 -1.0000 -0.0000
vn 0.9624 0.2715 -0.0000
vn -0.0000 0.2715 -0.9624
vt 0.625000 0.500000
vt 0.375000 0.500000
vt 0.625000 0.750000
vt 0.375000 0.750000
vt 0.875000 0.500000
vt 0.625000 0.250000
vt 0.125000 0.500000
vt 0.375000 0.250000
vt 0.875000 0.750000
vt 0.625000 1.000000
vt 0.625000 0.000000
vt 0.375000 1.000000
vt 0.375000 0.000000
vt 0.125000 0.750000
s 0
usemtl Material.001
f 9/15/7 13/19/7 15/23/7 11/17/7
f 12/18/8 11/17/8 15/24/8 16/26/8
f 16/27/9 15/25/9 13/20/9 14/22/9
f 14/21/10 10/16/10 12/18/10 16/28/10
f 10/16/11 9/15/11 11/17/11 12/18/11
f 14/22/12 13/20/12 9/15/12 10/16/12
o Cube.002
v 21.067200 7.500000 -21.067200
v 21.840000 4.500000 -21.840000
v 21.067200 7.500000 21.067200
v 21.840000 4.500000 21.840000
v -21.067200 7.500000 -21.067200
v -21.840000 4.500000 -21.840000
v -21.067200 7.500000 21.067200
v -21.840000 4.500000 21.840000
vn -0.0000 1.0000 -0.0000
vn -0.0000 0.2495 0.9684
vn -0.9684 0.2495 -0.0000
vn -0.0000 -1.0000 -0.0000
vn 0.9684 0.2495 -0.0000
vn -0.0000 0.2495 -0.9684
vt 0.625000 0.500000
vt 0.375000 0.500000
vt 0.625000 0.750000
vt 0.375000 0.750000
vt 0.875000 0.500000
vt 0.625000 0.250000
vt 0.125000 0.500000
vt 0.375000 0.250000
vt 0.875000 0.750000
vt 0.625000 1.000000
vt 0.625000 0.000000
vt 0.375000 1.000000
vt 0.375000 0.000000
vt 0.125000 0.750000
s 0
usemtl Material.002
f 17/29/13 21/33/13 23/37/13 19/31/13
f 20/32/14 19/31/14 23/38/14 24/40/14
f 24/41/15 23/39/15 21/34/15 22/36/15
f 22/35/16 18/30/16 20/32/16 24/42/16
f 18/30/17 17/29/17 19/31/17 20/32/17
f 22/36/18 21/34/18 17/29/18 18/30/18
o Cube.003
v 19.060801 10.500000 -19.060801
v 19.760000 7.500000 -19.760000
v 19.060801 10.500000 19.060801
v 19.760000 7.500000 19.760000
v -19.060801 10.500000 -19.060801
v -19.760000 7.500000 -19.760000
v -19.060801 10.500000 19.060801
v -19.760000 7.500000 19.760000
vn -0.0000 1.0000 -0.0000
vn -0.0000 0.2270 0.9739
vn -0.9739 0.2270 -0.0000
vn -0.0000 -1.0000 -0.0000
vn 0.9739 0.2270 -0.0000
vn -0.0000 0.2270 -0.9739
vt 0.625000 0.500000
vt 0.375000 0.500000
vt 0.625000 0.750000
vt 0.375000 0.750000
vt 0.875000 0.500000
vt 0.625000 0.250000
vt 0.125000 0.500000
vt 0.375000 0.250000
vt 0.875000 0.750000
vt 0.625000 1.000000
vt 0.625000 0.000000
vt 0.375000 1.000000
vt 0.375000 0.000000
vt 0.125000 0.750000
s 0
usemtl Material.003
f 25/43/19 29/47/19 31/51/19 27/45/19
f 28/46/20 27/45/20 31/52/20 32/54/20
f 32/55/21 31/53/21 29/48/21 30/50/21
f 30/49/22 26/44/22 28/46/22 32/56/22
f 26/44/23 25/43/23 27/45/23 28/46/23
f 30/50/24 29/48/24 25/43/24 26/44/24
o Cube.004
v 17.054399 13.500000 -17.054399
v 17.680000 10.500000 -17.680000
v 17.054399 13.500000 17.054399
v 17.680000 10.500000 17.680000
v -17.054399 13.500000 -17.054399
v -17.680000 10.500000 -17.680000
v -17.054399 13.500000 17.054399
v -17.680000 10.500000 17.680000
vn -0.0000 1.0000 -0.0000
vn -0.0000 0.2041 0.9789
vn -0.9789 0.2041 -0.0000
vn -0.0000 -1.0000 -0.0000
vn 0.9789 0.2041 -0.0000
vn -0.0000 0.2041 -0.9789
vt 0.625000 0.500000
vt 0.375000 0.500000
vt 0.625000 0.750000
vt 0.375000 0.750000
vt 0.875000 0.500000
vt 0.625000 0.250000
vt 0.125000 0.500000
vt 0.375000 0.250000
vt 0.875000 0.750000
vt 0.625000 1.000000
vt 0.625000 0.000000
vt 0.375000 1.000000
vt 0.375000 0.000000
vt 0.125000 0.750000
s 0
usemtl Material.004
f 33/57/25 37/61/25 39/65/25 35/59/25
f 36/60/26 35/59/26 39/66/26 40/68/26
f 40/69/27 39/67/27 37/62/27 38/64/27
f 38/63/28 34/58/28 36/60/28 40/70/28
f 34/58/29 33/57/29 35/59/29 36/60/29
f 38/64/30 37/62/30 33/57/30 34/58/30
o Cube.005
v 15.048000 16.500000 -15.048000
v 15.600000 13.500000 -15.600000
v 15.048000 16.500000 15.048000
v 15.600000 13.500000 15.600000
v -15.048000 16.500000 -15.048000
v -15.600000 13.500000 -15.600000
v -15.048000 16.500000 15.048000
v -15.600000 13.500000 15.600000
vn -0.0000 1.0000 -0.0000
vn -0.0000 0.1810 0.9835
vn -0.9835 0.1810 -0.0000
vn -0.0000 -1.0000 -0.0000
vn 0.9835 0.1810 -0.0000
vn -0.0000 0.1810 -0.9835
vt 0.625000 0.500000
vt 0.375000 0.500000
vt 0.625000 0.750000
vt 0.375000 0.750000
vt 0.875000 0.500000
vt 0.625000 0.250000
vt 0.125000 0.500000
vt 0.375000 0.250000
vt 0.875000 0.750000
vt 0.625000 1.000000
vt 0.625000 0.000000
vt 0.375000 1.000000
vt 0.375000 0.000000
vt 0.125000 0.750000
s 0
usemtl Material.005
f 41/71/31 45/75/31 47/79/31 43/73/31
f 44/74/32 43/73/32 47/80/32 48/82/32
f 48/83/33 47/81/33 45/76/33 46/78/33
f 46/77/34 42/72/34 44/74/34 48/84/34
f 42/72/35 41/71/35 43/73/35 44/74/35
f 46/78/36 45/76/36 41/71/36 42/72/36
o Cube.006
v 13.041599 19.500000 -13.041599
v 13.520000 16.500000 -13.520000
v 13.041599 19.500000 13.041599
v 13.520000 16.500000 13.520000
v -13.041599 19.500000 -13.041599
v -13.520000 16.500000 -13.520000
v -13.041599 19.500000 13.041599
v -13.520000 16.500000 13.520000
vn -0.0000 1.0000 -0.0000
vn -0.0000 0.1575 0.9875
vn -0.9875 0.1575 -0.0000
vn -0.0000 -1.0000 -0.0000
vn 0.9875 0.1575 -0.0000
vn -0.0000 0.1575 -0.9875
vt 0.625000 0.500000
vt 0.375000 0.500000
vt 0.625000 0.750000
vt 0.375000 0.750000
vt 0.875000 0.500000
vt 0.625000 0.250000
vt 0.125000 0.500000
vt 0.375000 0.250000
vt 0.875000 0.750000
vt 0.625000 1.000000
vt 0.625000 0.000000
vt 0.375000 1.000000
vt 0.375000 0.000000
vt 0.125000 0.750000
s 0
usemtl Material.006
f 49/85/37 53/89/37 55/93/37 51/87/37
f 52/88/38 51/87/38 55/94/38 56/96/38
f 56/97/39 55/95/39 53/90/39 54/92/39
f 54/91/40 50/86/40 52/88/40 56/98/40
f 50/86/41 49/85/41 51/87/41 52/88/41
f 54/92/42 53/90/42 49/85/42 50/86/42
o Cube.007
v 11.035200 22.500000 -11.035200
v 11.440000 19.500000 -11.440000
v 11.035200 22.500000 11.035200
v 11.440000 19.500000 11.440000
v -11.035200 22.500000 -11.035200
v -11.440000 19.500000 -11.440000
v -11.035200 22.500000 11.035200
v -11.440000 19.500000 11.440000
vn -0.0000 1.0000 -0.0000
vn -0.0000 0.1337 0.9910
vn -0.9910 0.1337 -0.0000
vn -0.0000 -1.0000 -0.0000
vn 0.9910 0.1337 -0.0000
vn -0.0000 0.1337 -0.9910
vt 0.625000 0.500000
vt 0.375000 0.500000
vt 0.625000 0.750000
vt 0.375000 0.750000
vt 0.875000 0.500000
vt 0.625000 0.250000
vt 0.125000 0.500000
vt 0.375000 0.250000
vt 0.875000 0.750000
vt 0.625000 1.000000
vt 0.625000 0.000000
vt 0.375000 1.000000
vt 0.375000 0.000000
vt 0.125000 0.750000
s 0
usemtl Material.007
f 57/99/43 61/103/43 63/107/43 59/101/43
f 60/102/44 59/101/44 63/108/44 64/110/44
f 64/111/45 63/109/45 61/104/45 62/106/45
f 62/105/46 58/100/46 60/102/46 64/112/46
f 58/100/47 57/99/47 59/101/47 60/102/47
f 62/106/48 61/104/48 57/99/48 58/100/48
o Cube.008
v 9.028800 25.500000 -9.028800
v 9.360001 22.500000 -9.360001
v 9.028800 25.500000 9.028800
v 9.360001 22.500000 9.360001
v -9.028800 25.500000 -9.028800
v -9.360001 22.500000 -9.360001
v -9.028800 25.500000 9.028800
v -9.360001 22.500000 9.360001
vn -0.0000 1.0000 -0.0000
vn -0.0000 0.1097 0.9940
vn -0.9940 0.1097 -0.0000
vn -0.0000 -1.0000 -0.0000
vn 0.9940 0.1097 -0.0000
vn -0.0000 0.1097 -0.9940
vt 0.625000 0.500000
vt 0.375000 0.500000
vt 0.625000 0.750000
vt 0.375000 0.750000
vt 0.875000 0.500000
vt 0.625000 0.250000
vt 0.125000 0.500000
vt 0.375000 0.250000
vt 0.875000 0.750000
vt 0.625000 1.000000
vt 0.625000 0.000000
vt 0.375000 1.000000
vt 0.375000 0.000000
vt 0.125000 0.750000
s 0
usemtl Material.008
f 65/113/49 69/117/49 71/121/49 67/115/49
f 68/116/50 67/115/50 71/122/50 72/124/50
f 72/125/51 71/123/51 69/118/51 70/120/51
f 70/119/52 66/114/52 68/116/52 72/126/52
f 66/114/53 65/113/53 67/115/53 68/116/53
f 70/120/54 69/118/54 65/113/54 66/114/54
o Cube.009
v -7.000000 25.500000 7.000000
v -7.000000 33.500000 7.000000
v -7.000000 25.500000 -7.000000
v -7.000000 33.500000 -7.000000
v 7.000000 25.500000 7.000000
v 7.000000 33.500000 7.000000
v 7.000000 25.500000 -7.000000
v 7.000000 33.500000 -7.000000
vn -1.0000 -0.0000 -0.0000
vn -0.0000 -0.0000 -1.0000
vn 1.0000 -0.0000 -0.0000
vn -0.0000 -0.0000 1.0000
vn -0.0000 -1.0000 -0.0000
vn -0.0000 1.0000 -0.0000
vt 0.375000 0.000000
vt 0.375000 1.000000
vt 0.125000 0.750000
vt 0.625000 0.000000
vt 0.625000 1.000000
vt 0.875000 0.750000
vt 0.375000 0.250000
vt 0.125000 0.500000
vt 0.625000 0.250000
vt 0.875000 0.500000
vt 0.375000 0.750000
vt 0.625000 0.750000
vt 0.375000 0.500000
vt 0.625000 0.500000
s 0
f 73/127/55 74/130/55 76/135/55 75/133/55
f 75/133/56 76/135/56 80/140/56 79/139/56
f 79/139/57 80/140/57 78/138/57 77/137/57
f 77/137/58 78/138/58 74/131/58 73/128/58
f 75/134/59 79/139/59 77/137/59 73/129/59
f 80/140/60 76/136/60 74/132/60 78/138/60
